<?xml version="1.0" standalone="no"?><!DOCTYPE svg PUBLIC "-//W3C//DTD SVG 1.1//EN" "http://www.w3.org/Graphics/SVG/1.1/DTD/svg11.dtd"><svg t="1494905308540" class="icon" style="" viewBox="0 0 1024 1024" version="1.1" xmlns="http://www.w3.org/2000/svg" p-id="2395" xmlns:xlink="http://www.w3.org/1999/xlink" width="16" height="16"><defs><style type="text/css"></style></defs><path d="M869.577978 67.538209 152.466484 67.538209c-47.764863 0-86.654592 38.889729-86.654592 86.654592l0 457.564203c0 47.76998 38.889729 86.653569 86.654592 86.653569l110.571305 0 2.305509 231.359298 237.20954-231.359298 367.025141 0c47.76384 0 86.654592-38.883589 86.654592-86.653569L956.23257 154.192801C956.23257 106.427938 917.341818 67.538209 869.577978 67.538209zM775.330454 478.187917c0 16.389272-13.286608 29.67588-29.67588 29.67588l-316.201615 0-5.116531 0-17.396205 0c-10.737552 0-19.442818-8.705266-19.442818-19.442818L387.497405 206.840882c0-10.737552 8.705266-19.442818 19.442818-19.442818l22.512736 0c10.737552 0 19.442818 8.705266 19.442818 19.442818l0 236.383732 296.758798 0c16.389272 0 29.67588 13.286608 29.67588 29.67588L775.330454 478.187917z" p-id="2396" fill="#bfbfbf"></path></svg>