<?xml version="1.0" standalone="no"?><!DOCTYPE svg PUBLIC "-//W3C//DTD SVG 1.1//EN" "http://www.w3.org/Graphics/SVG/1.1/DTD/svg11.dtd"><svg t="1493886264256" class="icon" style="" viewBox="0 0 1024 1024" version="1.1" xmlns="http://www.w3.org/2000/svg" p-id="1850" xmlns:xlink="http://www.w3.org/1999/xlink" width="16" height="16"><defs><style type="text/css"></style></defs><path d="M1011.262396 512.920976c0 274.751574-222.817762 497.516124-497.664503 497.516124-274.821159 0-497.604128-222.763526-497.604128-497.516124 0-274.78125 222.782969-497.547847 497.604128-497.547847C788.444635 15.372106 1011.262396 238.138702 1011.262396 512.920976zM513.597893 86.458117c-235.545644 0-426.53142 190.942797-426.53142 426.461835 0 235.488339 190.985776 426.431136 426.53142 426.431136 235.602949 0 426.562119-190.942797 426.562119-426.431136C940.160012 277.400914 749.201865 86.458117 513.597893 86.458117zM451.394179 575.111386 451.394179 264.161379l62.23339 0 0 248.758574 248.816902 0 0 62.190411L451.394179 575.110363z" p-id="1851"></path></svg>