<?xml version="1.0" standalone="no"?><!DOCTYPE svg PUBLIC "-//W3C//DTD SVG 1.1//EN" "http://www.w3.org/Graphics/SVG/1.1/DTD/svg11.dtd"><svg t="1494826826338" class="icon" style="" viewBox="0 0 1024 1024" version="1.1" xmlns="http://www.w3.org/2000/svg" p-id="2556" xmlns:xlink="http://www.w3.org/1999/xlink" width="16" height="16"><defs><style type="text/css"></style></defs><path d="M209.066667 870.4c-12.8 0-25.6-4.266667-34.133333-17.066667-21.333333-21.333333-21.333333-51.2 0-72.533333L785.066667 170.666667c21.333333-21.333333 51.2-21.333333 72.533333 0 21.333333 21.333333 21.333333 51.2 0 72.533333L243.2 853.333333C234.666667 866.133333 221.866667 870.4 209.066667 870.4z" p-id="2557"></path><path d="M823.466667 870.4c-12.8 0-25.6-4.266667-34.133333-17.066667L170.666667 243.2C153.6 221.866667 153.6 187.733333 170.666667 170.666667s51.2-21.333333 72.533333 0l614.4 614.4c21.333333 21.333333 21.333333 51.2 0 72.533333C849.066667 866.133333 836.266667 870.4 823.466667 870.4z" p-id="2558"></path></svg>