<?xml version="1.0" standalone="no"?><!DOCTYPE svg PUBLIC "-//W3C//DTD SVG 1.1//EN" "http://www.w3.org/Graphics/SVG/1.1/DTD/svg11.dtd"><svg t="1494583934886" class="icon" style="" viewBox="0 0 1024 1024" version="1.1" xmlns="http://www.w3.org/2000/svg" p-id="2445" xmlns:xlink="http://www.w3.org/1999/xlink" width="48" height="48"><defs><style type="text/css"></style></defs><path d="M192.96 36.203h433.201c10.007 0 19.403 4.132 26.189 10.614l264.149 264.281c7.052 7.699 10.878 16.791 10.878 26.404v551.443c0 26.756-10.878 51.117-29.063 68.997v0l-1.043 0.83c-17.572 17.354-41.764 28.015-67.95 28.015h-636.362c-26.45 0-50.812-10.878-68.995-28.845v0c-17.662-17.881-28.799-42.241-28.799-68.997v-754.905c0-26.972 11.137-51.376 28.799-69.084 17.574-17.837 42.022-28.754 68.995-28.754v0zM298.412 763.613v0h366.905c12.441 0 22.012-9.875 22.012-21.793 0-11.921-9.571-22.099-22.012-22.099h-366.905c-12.006 0-21.925 10.178-21.925 22.099 0 11.918 9.919 21.793 21.925 21.793v0zM298.412 609.222v0h250.143c11.92 0 21.49-9.614 21.49-21.579 0-12.398-9.57-22.272-21.49-22.272h-250.143c-12.006 0-21.925 9.874-21.925 22.272 0 11.965 9.919 21.579 21.925 21.579v0zM298.412 454.786v0h425.284c12.181 0 22.015-9.83 22.015-21.709 0-12.267-9.834-22.401-22.015-22.401h-425.284c-12.006 0-21.925 10.134-21.925 22.401 0 11.877 9.919 21.709 21.925 21.709v0zM604.499 109.155v0h-411.538c-6.787 0-12.877 2.567-17.403 7.483-4.35 4.393-6.96 10.658-6.96 17.402v754.905c0 6.746 2.611 12.965 6.96 17.402v0c4.526 4.657 10.615 7.223 17.403 7.223h636.363c6.698 0 12.962-2.567 17.053-6.961l0.695-0.263c4.003-4.436 7.134-10.657 7.134-17.402v-529.907h-166.877c-22.535 0-43.59-9.050-58.815-24.319l-1.132-1.347c-14.27-15.053-22.883-35.326-22.883-57.641v-166.575zM816.791 315.445v0l-168.615-168.964v129.249c0 10.395 4.175 19.965 10.441 27.015l0.956 0.997c7.221 7.050 17.053 11.702 27.756 11.702h129.463z" p-id="2446"></path></svg>