<?xml version="1.0" standalone="no"?><!DOCTYPE svg PUBLIC "-//W3C//DTD SVG 1.1//EN" "http://www.w3.org/Graphics/SVG/1.1/DTD/svg11.dtd"><svg t="1495173967695" class="icon" style="" viewBox="0 0 1024 1024" version="1.1" xmlns="http://www.w3.org/2000/svg" p-id="549" xmlns:xlink="http://www.w3.org/1999/xlink" width="16" height="16"><defs><style type="text/css"></style></defs><path d="M651.625 612.338h-36.161l-13.547-13.547c45.227-49.706 72.321-117.546 72.321-189.867 0-162.772-131.093-293.867-293.867-293.867s-293.867 131.093-293.867 293.867 131.093 293.867 293.867 293.867c72.319 0 140.159-27.094 189.867-72.321l13.547 13.547v36.161l226.026 226.026 67.84-67.84-226.026-226.026zM380.374 612.338c-113.067 0-203.412-90.453-203.412-203.415s90.453-203.415 203.415-203.415 203.415 90.453 203.415 203.415-90.453 203.415-203.415 203.415z" fill="" p-id="550"></path></svg>