<?xml version="1.0" standalone="no"?><!DOCTYPE svg PUBLIC "-//W3C//DTD SVG 1.1//EN" "http://www.w3.org/Graphics/SVG/1.1/DTD/svg11.dtd"><svg t="1494560759264" class="icon" style="" viewBox="0 0 1024 1024" version="1.1" xmlns="http://www.w3.org/2000/svg" p-id="2409" xmlns:xlink="http://www.w3.org/1999/xlink" width="16" height="16"><defs><style type="text/css"></style></defs><path d="M805.904797 894.63363 216.383212 894.63363c-48.917106 0-88.713484-39.797401-88.713484-88.713484L127.669728 216.399585c0-48.917106 39.796378-88.713484 88.713484-88.713484l589.521584 0c48.917106 0 88.713484 39.796378 88.713484 88.713484l0 589.520561C894.618281 854.836229 854.820879 894.63363 805.904797 894.63363zM216.383212 189.084473c-15.061021 0-27.315112 12.254092-27.315112 27.315112l0 589.520561c0 15.062044 12.254092 27.315112 27.315112 27.315112l589.521584 0c15.062044 0 27.315112-12.254092 27.315112-27.315112L833.219909 216.399585c0-15.061021-12.254092-27.315112-27.315112-27.315112L216.383212 189.084473z" p-id="2410"></path></svg>