<?xml version="1.0" standalone="no"?><!DOCTYPE svg PUBLIC "-//W3C//DTD SVG 1.1//EN" "http://www.w3.org/Graphics/SVG/1.1/DTD/svg11.dtd"><svg t="1494905223174" class="icon" style="" viewBox="0 0 1024 1024" version="1.1" xmlns="http://www.w3.org/2000/svg" p-id="1022" xmlns:xlink="http://www.w3.org/1999/xlink" width="16" height="16"><defs><style type="text/css"></style></defs><path d="M982.650755 739.695862c-52.063773-37.123502-132.331911-17.374716-182.164876-83.627652 0 0-18.62008-20.906146 23.136953-71.870888 41.840944-51.250244 45.315068-132.327818 34.775015-195.223287C847.973426 326.486866 788.960381 284.615223 727.167013 284.615223c-61.358463 0-120.515794 41.87062-131.114177 104.357789-10.307763 62.895469-6.6607 143.973042 35.096333 195.223287 20.906146 25.656333 26.666336 43.784202 27.27418 55.3097 19.11229 6.370081 38.744419 14.941294 56.725956 27.912723 78.849836 56.001455 74.389244 163.835416 71.582315 194.065927l235.444337 0C1022.175957 861.485673 1035.031752 776.787642 982.650755 739.695862z" p-id="1023" fill="#dbdbdb"></path><path d="M684.109358 710.853977c-17.98256-12.799514-38.8314-19.980054-60.663638-25.858948-56.292074-14.681374-120.112612-18.503423-164.704203-77.544097 0 0-22.816658-25.801642 28.725228-88.868003 51.862181-63.297628 56.117089-163.604148 43.087331-241.149269-12.857842-77.515445-86.058005-129.260969-162.185846-129.260969-75.92318 0-149.211347 51.745525-162.068166 129.260969-13.030781 77.54512-8.80248 177.850617 43.086307 241.149269 51.54291 63.066361 28.695552 88.868003 28.695552 88.868003-44.274366 58.520835-107.573017 62.776765-163.574473 77.139891-22.237467 5.876847-43.49256 13.234419-61.792345 26.263154C-12.175809 756.778936 3.808234 861.485673 3.808234 861.485673l7.181563 0 295.006897 0 62.371536 0 64.081481 0 294.717302 0 5.791913 0C732.959949 861.485673 748.914316 756.778936 684.109358 710.853977z" p-id="1024" fill="#dbdbdb"></path></svg>