<?xml version="1.0" standalone="no"?><!DOCTYPE svg PUBLIC "-//W3C//DTD SVG 1.1//EN" "http://www.w3.org/Graphics/SVG/1.1/DTD/svg11.dtd"><svg t="1493886312821" class="icon" style="" viewBox="0 0 1024 1024" version="1.1" xmlns="http://www.w3.org/2000/svg" p-id="3062" xmlns:xlink="http://www.w3.org/1999/xlink" width="16" height="16"><defs><style type="text/css"></style></defs><path d="M416.549579 447.222671 92.634282 447.222671c-14.483876 0-26.203802-11.719926-26.203802-26.203802L66.43048 97.103572c0-14.471596 11.720949-26.203802 26.203802-26.203802l323.915297 0c14.458293 0 26.203802 11.732206 26.203802 26.203802l0 323.915297C442.753381 435.502745 431.007873 447.222671 416.549579 447.222671zM118.838084 394.821207l271.507694 0 0-271.513834L118.838084 123.307374 118.838084 394.821207z" p-id="3063"></path><path d="M931.363671 447.222671 607.449397 447.222671c-14.471596 0-26.203802-11.719926-26.203802-26.203802L581.245595 97.103572c0-14.471596 11.733229-26.203802 26.203802-26.203802l323.914274 0c14.471596 0 26.203802 11.732206 26.203802 26.203802l0 323.915297C957.568497 435.502745 945.835268 447.222671 931.363671 447.222671zM633.653199 394.821207l271.507694 0 0-271.513834L633.653199 123.307374 633.653199 394.821207z" p-id="3064"></path><path d="M416.549579 953.107393 92.634282 953.107393c-14.483876 0-26.203802-11.746532-26.203802-26.203802l0-323.927577c0-14.471596 11.720949-26.203802 26.203802-26.203802l323.915297 0c14.458293 0 26.203802 11.733229 26.203802 26.203802l0 323.927577C442.753381 941.360861 431.007873 953.107393 416.549579 953.107393zM118.838084 900.698766l271.507694 0L390.345778 629.178793 118.838084 629.178793 118.838084 900.698766z" p-id="3065"></path><path d="M931.363671 953.107393 607.449397 953.107393c-14.471596 0-26.203802-11.746532-26.203802-26.203802l0-323.927577c0-14.471596 11.733229-26.203802 26.203802-26.203802l323.914274 0c14.471596 0 26.203802 11.733229 26.203802 26.203802l0 323.927577C957.568497 941.360861 945.835268 953.107393 931.363671 953.107393zM633.653199 900.698766l271.507694 0L905.160893 629.178793 633.653199 629.178793 633.653199 900.698766z" p-id="3066"></path></svg>